<svg width="100" height="19" viewBox="0 0 100 19" fill="none" xmlns="http://www.w3.org/2000/svg">
<path fill-rule="evenodd" clip-rule="evenodd" d="M2.4083 15.8903C0.150655 13.6518 0.150691 10.0225 2.40837 7.78401L8.54031 1.70415C10.4489 -0.188159 13.3598 -0.480818 15.5784 0.82618C16.2647 1.23045 16.2587 2.15782 15.6942 2.71745C15.1298 3.27708 14.2084 3.22891 13.4423 3.00674C12.4613 2.72225 11.358 2.96359 10.5843 3.73074L4.45233 9.81056C3.32349 10.9298 3.32348 12.7445 4.4523 13.8637C5.58115 14.983 7.4114 14.983 8.54024 13.8637L20.804 1.70423C23.0618 -0.534266 26.7221 -0.534276 28.9799 1.7042L35.1119 7.78401C37.3696 10.0224 37.3696 13.6518 35.1119 15.8903C32.8542 18.1288 29.1938 18.1288 26.936 15.8903L24.8921 13.8637L22.3371 16.397C20.4286 18.2893 17.5176 18.5819 15.299 17.2749C14.6127 16.8707 14.6188 15.9433 15.1832 15.3837C15.7476 14.824 16.6689 14.8722 17.4351 15.0943C18.4162 15.3789 19.5194 15.1375 20.2931 14.3704L22.9211 11.7648C24.0097 10.6855 25.7745 10.6855 26.8631 11.7648L28.98 13.8637C30.1089 14.983 31.939 14.983 33.0679 13.8637C34.1967 12.7445 34.1967 10.9298 33.0679 9.81056L26.9359 3.73081C25.807 2.61157 23.9769 2.61158 22.848 3.73083L10.5842 15.8904C8.32649 18.1289 4.66599 18.1289 2.4083 15.8903Z" fill="#1D2D35" fill-opacity="0.5"/>
<path d="M59.8966 3.27407C58.476 3.27407 57.3998 3.78277 56.6895 4.80016C56.0653 3.78277 55.0751 3.27407 53.7622 3.27407C52.4061 3.27407 51.416 3.74038 50.7702 4.69418V3.57081H47.9936V14.1687H50.7702V8.21265C50.7702 6.66539 51.5666 5.81756 52.7936 5.81756C53.9343 5.81756 54.6016 6.55941 54.6016 7.83118V14.1687H57.3783V8.21265C57.3783 6.66539 58.1101 5.81756 59.3801 5.81756C60.5209 5.81756 61.188 6.55941 61.188 7.83118V14.1687H63.9647V7.64037C63.9647 4.99093 62.3719 3.27407 59.8966 3.27407Z" fill="#1D2D35" fill-opacity="0.5"/>
<path d="M74.287 4.82136C73.4475 3.78277 72.2852 3.27407 70.7785 3.27407C69.3364 3.27407 68.1095 3.82516 67.0764 4.90614C66.0647 5.98712 65.5481 7.30127 65.5481 8.86976C65.5481 10.4382 66.0647 11.7736 67.0764 12.8546C68.1095 13.9355 69.3364 14.4654 70.7785 14.4654C72.2852 14.4654 73.4475 13.9567 74.287 12.9181V14.1687H77.0638V3.57081H74.287V4.82136ZM69.1642 11.0317C68.6046 10.4594 68.3247 9.73875 68.3247 8.86976C68.3247 8.0007 68.6046 7.28006 69.1642 6.72898C69.7238 6.15669 70.4341 5.88115 71.2951 5.88115C72.1561 5.88115 72.8664 6.15669 73.426 6.72898C74.0072 7.28006 74.287 8.0007 74.287 8.86976C74.287 9.73875 74.0072 10.4594 73.426 11.0317C72.8664 11.5828 72.1561 11.8583 71.2951 11.8583C70.4341 11.8583 69.7238 11.5828 69.1642 11.0317Z" fill="#1D2D35" fill-opacity="0.5"/>
<path d="M87.3089 5.3936V3.57077H79.2373V6.13546H83.5634L79.0214 12.3458V14.1686H87.524V11.6039H82.7451L87.3089 5.3936Z" fill="#1D2D35" fill-opacity="0.5"/>
<path d="M99.1336 9.99311C99.1983 9.59043 99.2411 9.2301 99.2411 8.86976C99.2411 7.28006 98.7252 5.96593 97.6918 4.88495C96.6802 3.80396 95.3671 3.27407 93.7959 3.27407C92.1383 3.27407 90.7611 3.80396 89.7059 4.88495C88.6515 5.94474 88.113 7.28006 88.113 8.86976C88.113 10.4806 88.6515 11.816 89.7278 12.8757C90.804 13.9355 92.2247 14.4654 94.011 14.4654C96.077 14.4654 97.6489 13.7024 98.7034 12.1975L96.4651 10.9257C95.9266 11.6252 95.1091 11.9855 94.0539 11.9855C92.397 11.9855 91.3854 11.3285 91.0191 9.99311H99.1336ZM90.9762 7.87352C91.2989 6.51702 92.3105 5.73278 93.7959 5.73278C95.0655 5.73278 96.1417 6.43224 96.4651 7.87352H90.9762Z" fill="#1D2D35" fill-opacity="0.5"/>
</svg>
