<svg width="115" height="26" viewBox="0 0 115 26" fill="none" xmlns="http://www.w3.org/2000/svg">
<path d="M33.8109 7.15752H38.6138C41.2742 7.15752 42.6554 8.24838 42.6554 10.2967V10.3987C42.6933 10.9989 42.5146 11.5928 42.1516 12.0724C41.7887 12.552 41.2657 12.8854 40.6778 13.012C41.3819 13.074 42.0331 13.4112 42.4901 13.9505C42.947 14.4897 43.1728 15.1875 43.1185 15.8922V15.9629C43.1185 18.1995 41.6509 19.3767 38.8335 19.3767H33.8109V7.15752ZM38.1664 12.1723C39.5006 12.1723 40.0264 11.6936 40.0264 10.6027V10.5321C40.0264 9.51189 39.4456 9.04886 38.1507 9.04886H36.5105V12.188L38.1664 12.1723ZM38.4019 17.4539C39.7674 17.4539 40.3874 16.834 40.3874 15.7274V15.6568C40.3874 14.5267 39.7674 13.9538 38.2685 13.9538H36.5105V17.4618L38.4019 17.4539Z" fill="#8C9498"/>
<path d="M43.8406 16.8889C43.8406 14.8014 45.7476 14.0166 48.4865 14.0166H49.4911V13.6634C49.4911 12.604 49.1693 12.0232 48.0392 12.0232C47.8563 12.0015 47.6708 12.0175 47.4943 12.0701C47.3178 12.1228 47.1539 12.211 47.0127 12.3293C46.8716 12.4477 46.7561 12.5937 46.6735 12.7584C46.5909 12.923 46.5429 13.1028 46.5324 13.2867H44.178C44.335 11.1678 46.0066 10.2261 48.1961 10.2261C50.3857 10.2261 51.9317 11.1129 51.9317 13.5379V19.361H49.5224V18.2858C49.2201 18.7119 48.8124 19.0522 48.3393 19.2737C47.8661 19.4951 47.3436 19.5901 46.8228 19.5494C45.2061 19.5494 43.8406 18.7646 43.8406 16.8889ZM49.4911 16.2375V15.4528H48.5336C47.0974 15.4528 46.2656 15.7667 46.2656 16.7163C46.2656 17.3676 46.658 17.7993 47.5605 17.7993C48.6513 17.8307 49.4911 17.2264 49.4911 16.2375Z" fill="#8C9498"/>
<path d="M52.9754 16.5593H55.2826C55.3847 17.3441 55.7771 17.8307 56.8522 17.8307C57.8097 17.8307 58.257 17.4697 58.257 16.8497C58.257 16.2297 57.7233 15.9786 56.4441 15.7981C54.0898 15.4371 53.148 14.7543 53.148 13.0121C53.148 11.2698 54.8588 10.2261 56.6796 10.2261C58.6651 10.2261 60.1483 10.9481 60.3681 12.9964H58.1C57.9666 12.2587 57.5507 11.9212 56.7031 11.9212C55.8555 11.9212 55.4396 12.2979 55.4396 12.8394C55.4396 13.3809 55.8634 13.6242 57.1583 13.8126C59.3949 14.1343 60.627 14.6994 60.627 16.6142C60.627 18.5291 59.2301 19.5494 56.8679 19.5494C54.5057 19.5494 53.0617 18.4899 52.9754 16.5593Z" fill="#8C9498"/>
<path d="M61.2627 15.0054V14.872C61.233 14.2587 61.3309 13.6459 61.5504 13.0724C61.7699 12.4989 62.106 11.9772 62.5377 11.5405C62.9692 11.1037 63.4869 10.7614 64.0577 10.5351C64.6285 10.3088 65.2401 10.2036 65.8538 10.226C68.161 10.226 70.2093 11.5759 70.2093 14.77V15.4527H63.7976C63.8604 16.936 64.6687 17.8071 66.0107 17.8071C67.1565 17.8071 67.7215 17.3127 67.8785 16.5593H70.2329C69.9425 18.4899 68.4043 19.565 65.9636 19.565C63.2247 19.5493 61.2627 17.862 61.2627 15.0054ZM67.8 13.9302C67.7215 12.5804 67.0309 11.9683 65.8538 11.9683C65.3238 11.9658 64.8135 12.1688 64.4301 12.5346C64.0466 12.9005 63.8199 13.4007 63.7976 13.9302H67.8Z" fill="#8C9498"/>
<path d="M70.8607 15.0053V14.8719C70.8308 14.2572 70.9292 13.6431 71.1496 13.0685C71.37 12.4939 71.7076 11.9714 72.1409 11.5344C72.5742 11.0974 73.0938 10.7554 73.6665 10.5301C74.2392 10.3049 74.8525 10.2013 75.4674 10.226C77.5393 10.226 79.4463 11.1285 79.6739 13.6947H77.3195C77.3039 13.4745 77.2441 13.2596 77.1438 13.0629C77.0434 12.8662 76.9046 12.6916 76.7355 12.5496C76.5664 12.4076 76.3705 12.301 76.1594 12.2362C75.9483 12.1713 75.7263 12.1496 75.5067 12.1722C74.2275 12.1722 73.372 13.1297 73.372 14.8405V14.9739C73.372 16.7711 74.1568 17.6893 75.5616 17.6893C75.8006 17.7031 76.04 17.6691 76.2657 17.5895C76.4915 17.5098 76.6992 17.386 76.8766 17.2254C77.0541 17.0647 77.1979 16.8703 77.2995 16.6535C77.4011 16.4368 77.4586 16.202 77.4686 15.9628H79.7053C79.5719 18.0817 78.0337 19.5493 75.436 19.5493C72.8384 19.5493 70.8607 17.9248 70.8607 15.0053Z" fill="#8C9498"/>
<path d="M80.2783 16.8889C80.2783 14.8014 82.1853 14.0166 84.9164 14.0166H85.9288V13.6634C85.9288 12.604 85.5992 12.0232 84.4769 12.0232C84.2928 11.9992 84.1057 12.0134 83.9273 12.065C83.7489 12.1165 83.5831 12.2044 83.4402 12.323C83.2973 12.4416 83.1804 12.5884 83.0968 12.7542C83.0132 12.92 82.9648 13.1013 82.9544 13.2867H80.6001C80.757 11.1678 82.4286 10.226 84.6103 10.226C86.7921 10.226 88.3538 11.1129 88.3538 13.5379V19.361H85.9445V18.2858C85.6421 18.7119 85.2345 19.0522 84.7613 19.2737C84.2881 19.4951 83.7656 19.5901 83.2448 19.5493C81.6752 19.5493 80.2783 18.7645 80.2783 16.8889ZM85.9288 16.2375V15.4527H84.987C83.5509 15.4527 82.7112 15.7667 82.7112 16.7162C82.7112 17.3676 83.1114 17.7993 84.0139 17.7993C85.1205 17.8306 85.9602 17.2264 85.9602 16.2375H85.9288Z" fill="#8C9498"/>
<path d="M90.0958 10.3987H92.5679V11.7642C92.8375 11.279 93.2342 10.8765 93.7154 10.6C94.1966 10.3234 94.7441 10.1833 95.299 10.1946C95.8286 10.1523 96.3577 10.2822 96.8074 10.565C97.2571 10.8479 97.6034 11.2685 97.7946 11.7642C98.1242 11.2719 98.5721 10.8703 99.0973 10.596C99.6224 10.3218 100.208 10.1838 100.8 10.1946C102.456 10.1946 103.735 11.2384 103.735 13.6084V19.3296H101.279V13.9145C101.279 12.7687 100.769 12.2586 99.8743 12.2586C99.6363 12.2483 99.3989 12.2894 99.1782 12.3792C98.9576 12.4689 98.7589 12.6053 98.5957 12.7789C98.4326 12.9524 98.3088 13.1592 98.2328 13.385C98.1569 13.6108 98.1305 13.8503 98.1556 14.0872V19.3609H95.6914V13.9145C95.6914 12.7687 95.1656 12.2586 94.2944 12.2586C94.0558 12.2471 93.8175 12.2873 93.5959 12.3766C93.3743 12.4659 93.1746 12.602 93.0106 12.7758C92.8466 12.9495 92.7221 13.1566 92.6457 13.383C92.5692 13.6094 92.5427 13.8496 92.5679 14.0872V19.3609H90.0958V10.3987Z" fill="#8C9498"/>
<path d="M105.431 10.3987H107.911V11.8034C108.206 11.3121 108.624 10.9057 109.123 10.6237C109.622 10.3418 110.186 10.1939 110.759 10.1946C112.949 10.1946 114.683 11.8191 114.683 14.7699V14.9112C114.683 17.862 113.012 19.5179 110.759 19.5179C110.187 19.5414 109.618 19.4076 109.116 19.1309C108.614 18.8542 108.197 18.4452 107.911 17.9483V22.4059H105.431V10.3987ZM112.141 14.7935C112.141 12.9806 111.254 12.0938 110.006 12.0938C108.758 12.0938 107.824 12.9963 107.824 14.7935V14.9269C107.824 16.7162 108.68 17.5873 110.03 17.5873C111.379 17.5873 112.141 16.677 112.141 14.9583V14.7935Z" fill="#8C9498"/>
<path fill-rule="evenodd" clip-rule="evenodd" d="M15.4626 2.89219C8.49879 2.89219 4.86709 8.79065 2.8337 14.5558C2.5879 15.2527 1.82368 15.6184 1.12676 15.3726C0.628295 15.1968 0.299272 14.7558 0.24225 14.2639C0.219548 14.068 0.239958 13.8641 0.309951 13.6657C2.37316 7.81598 6.58935 0.216064 15.4626 0.216064C20.1006 0.216064 23.4204 3.28441 25.5674 6.97064C27.72 10.6666 28.8678 15.2429 29.1264 18.9379C29.145 19.2035 29.0839 19.4686 28.951 19.6993C27.7076 21.8577 25.6391 23.2643 23.2811 24.1258C20.929 24.9852 18.2044 25.3362 15.4734 25.3371C13.153 25.3733 10.8521 24.909 8.72738 23.9756C6.59929 23.0408 4.6981 21.6576 3.15376 19.9204C2.82522 19.5508 2.72727 19.0302 2.89905 18.5665L2.90006 18.5638L2.90198 18.5587L2.90852 18.5412L2.93221 18.4787C2.95264 18.4253 2.98225 18.3486 3.02041 18.252C3.09666 18.059 3.20735 17.7857 3.34728 17.4587C3.62593 16.8076 4.02624 15.93 4.50712 15.044C4.98167 14.1696 5.56522 13.2297 6.22145 12.4891C6.81969 11.8139 7.74957 10.9915 8.93977 10.9834L8.94884 10.9833C9.78986 10.9833 10.4807 11.3684 10.978 11.7386C11.4793 12.1117 11.9345 12.5859 12.2993 12.972C12.3411 13.0163 12.3818 13.0594 12.4214 13.1014C12.7611 13.4616 13.0209 13.7371 13.2678 13.9433C13.2955 13.9665 13.321 13.987 13.3442 14.005C13.4245 13.923 13.5203 13.8154 13.6306 13.6787C14.0227 13.1926 14.4632 12.5077 14.8895 11.7745C15.3102 11.0509 15.693 10.3221 15.9722 9.77075C16.1112 9.49604 16.2235 9.26757 16.3005 9.10863C16.339 9.02921 16.3687 8.96727 16.3885 8.92575L16.4106 8.87918L16.4158 8.86808L16.4169 8.8657C16.7306 8.19668 17.5274 7.90821 18.1965 8.22184C18.8656 8.5355 19.1538 9.3322 18.8402 10.0013L18.8373 10.0075L18.8303 10.0222L18.8046 10.0764C18.7823 10.1232 18.75 10.1908 18.7086 10.2761C18.6258 10.4468 18.5067 10.6892 18.3597 10.9796C18.0667 11.5583 17.6584 12.3363 17.203 13.1195C16.7533 13.8931 16.2329 14.715 15.7135 15.3589C15.4559 15.6782 15.1639 15.9976 14.8482 16.2488C14.5691 16.4708 14.0768 16.7986 13.4457 16.7986C12.6112 16.7986 11.9536 16.3327 11.5517 15.9968C11.173 15.6803 10.7946 15.2781 10.4768 14.9401C10.4348 14.8955 10.3939 14.8521 10.3542 14.81C9.97741 14.4113 9.66941 14.1007 9.38 13.8852C9.12634 13.6964 8.99684 13.6654 8.95965 13.6604C8.95965 13.6604 8.95698 13.6614 8.95464 13.6622C8.91373 13.6767 8.66794 13.7633 8.22439 14.2639C7.7645 14.7829 7.29398 15.5194 6.85916 16.3206C6.43066 17.1101 6.0663 17.9071 5.80761 18.5116C5.77427 18.5895 5.74279 18.6639 5.71324 18.7346C6.89088 19.908 8.27732 20.855 9.80368 21.5255C11.5791 22.3054 13.5019 22.6928 15.4408 22.6612L15.4626 22.661C17.9939 22.661 20.3898 22.333 22.3627 21.6122C24.1778 20.949 25.5624 19.9825 26.423 18.6994C26.1314 15.4111 25.0839 11.4578 23.2549 8.31753C21.3406 5.03092 18.7431 2.89219 15.4626 2.89219ZM13.1243 14.1951C13.1243 14.1951 13.1301 14.1907 13.1414 14.1849C13.1298 14.1928 13.1243 14.1951 13.1243 14.1951Z" fill="#8C9498"/>
</svg>
