<svg width="93" height="34" viewBox="0 0 93 34" fill="none" xmlns="http://www.w3.org/2000/svg">
<mask id="mask0_1_357" style="mask-type:alpha" maskUnits="userSpaceOnUse" x="0" y="0" width="33" height="34">
<path d="M0 6.5C0 3.67157 0 2.25736 0.87868 1.37868C1.75736 0.5 3.17157 0.5 6 0.5H31.2321C32.2085 0.5 33 1.2915 33 2.26786C33 19.5169 19.0169 33.5 1.76786 33.5C0.791496 33.5 0 32.7085 0 31.7321V6.5Z" fill="#99EA48"/>
</mask>
<g mask="url(#mask0_1_357)">
<path d="M0 6.5C0 3.67157 0 2.25736 0.87868 1.37868C1.75736 0.5 3.17157 0.5 6 0.5H31.2321C32.2085 0.5 33 1.2915 33 2.26786C33 19.5169 19.0169 33.5 1.76786 33.5C0.791496 33.5 0 32.7085 0 31.7321V6.5Z" fill="#99EA48"/>
<path d="M11 18C11 15.1716 11 13.7574 11.8787 12.8787C12.7574 12 14.1716 12 17 12H24.25C24.6642 12 25 12.3358 25 12.75C25 20.0678 19.0678 26 11.75 26C11.3358 26 11 25.6642 11 25.25V18Z" fill="#191F33"/>
</g>
<path d="M42.68 26.5V9.22H45.284L51.26 21.46L57.236 9.22H59.84V26.5H57.14V15.424L51.836 26.5H50.684L45.392 15.424V26.5H42.68ZM60.8112 26.5L66.2592 9.22H70.4952L75.9433 26.5H72.9673L68.0232 10.996H68.6712L63.7872 26.5H60.8112ZM63.8472 22.756V20.056H72.9192V22.756H63.8472ZM83.7521 26.86C82.0241 26.86 80.5441 26.484 79.3121 25.732C78.0801 24.972 77.1321 23.916 76.4681 22.564C75.8121 21.212 75.4841 19.644 75.4841 17.86C75.4841 16.076 75.8121 14.508 76.4681 13.156C77.1321 11.804 78.0801 10.752 79.3121 10C80.5441 9.24 82.0241 8.86 83.7521 8.86C85.7441 8.86 87.4041 9.36 88.7321 10.36C90.0601 11.352 90.9921 12.692 91.5281 14.38L88.6121 15.184C88.2761 14.056 87.7041 13.176 86.8961 12.544C86.0881 11.904 85.0401 11.584 83.7521 11.584C82.5921 11.584 81.6241 11.844 80.8481 12.364C80.0801 12.884 79.5001 13.616 79.1081 14.56C78.7241 15.496 78.5281 16.596 78.5201 17.86C78.5201 19.124 78.7121 20.228 79.0961 21.172C79.4881 22.108 80.0721 22.836 80.8481 23.356C81.6241 23.876 82.5921 24.136 83.7521 24.136C85.0401 24.136 86.0881 23.816 86.8961 23.176C87.7041 22.536 88.2761 21.656 88.6121 20.536L91.5281 21.34C90.9921 23.028 90.0601 24.372 88.7321 25.372C87.4041 26.364 85.7441 26.86 83.7521 26.86Z" fill="#020407"/>
</svg>
