<svg width="34" height="34" viewBox="0 0 34 34" fill="none" xmlns="http://www.w3.org/2000/svg">
<rect width="34" height="34" rx="17" fill="white"/>
<g clip-path="url(#clip0_1_589)">
<path d="M25.9999 11.7044C25.3258 11.9889 24.6109 12.1756 23.8788 12.2584C24.6414 11.823 25.2269 11.1335 25.5026 10.312C24.7777 10.7218 23.9846 11.0105 23.1576 11.1657C22.4839 10.482 21.5242 10.0547 20.462 10.0547C18.4225 10.0547 16.769 11.6299 16.769 13.5728C16.769 13.8486 16.8017 14.117 16.8646 14.3746C13.7955 14.2278 11.0744 12.8272 9.25292 10.6987C8.9351 11.2183 8.753 11.8227 8.753 12.4674C8.753 13.688 9.405 14.7648 10.3958 15.3957C9.8094 15.3782 9.23587 15.2273 8.72311 14.9556C8.7229 14.9704 8.7229 14.9851 8.7229 14.9999C8.7229 16.7045 9.99584 18.1265 11.6852 18.4497C11.1414 18.5906 10.5709 18.6112 10.0175 18.5099C10.4874 19.9077 11.8512 20.9248 13.4672 20.9532C12.2033 21.8968 10.6109 22.4593 8.88082 22.4593C8.5827 22.4593 8.28879 22.4426 7.99988 22.4101C9.63415 23.4083 11.5753 23.9908 13.6607 23.9908C20.4534 23.9908 24.1678 18.6299 24.1678 13.9808C24.1678 13.8282 24.1643 13.6765 24.1571 13.5256C24.8801 13.0277 25.5041 12.411 25.9999 11.7044Z" fill="#192031"/>
</g>
<defs>
<clipPath id="clip0_1_589">
<rect width="18" height="14" fill="white" transform="translate(7.99988 10)"/>
</clipPath>
</defs>
</svg>
